<svg xmlns="http://www.w3.org/2000/svg" version="1.1" xmlns:xlink="http://www.w3.org/1999/xlink" xmlns:svgjs="http://svgjs.dev/svgjs" width="1000" height="1000" viewBox="0 0 1000 1000"><rect width="1000" height="1000" fill="#ffffff"></rect><g transform="matrix(0.7,0,0,0.7,149.57576124741627,452.3010516371354)"><svg viewBox="0 0 396 54" data-background-color="#ffffff" preserveAspectRatio="xMidYMid meet" height="136" width="1000" xmlns="http://www.w3.org/2000/svg" xmlns:xlink="http://www.w3.org/1999/xlink"><g id="tight-bounds" transform="matrix(1,0,0,1,0.23999792289021116,0.056227902305323596)"><svg viewBox="0 0 395.52 53.88763616346099" height="53.88763616346099" width="395.52"><g><svg viewBox="0 0 475.62026826069416 64.8009" height="53.88763616346099" width="395.52"><g><svg viewBox="0 0 475.62026826069416 64.8009" height="64.8009" width="475.62026826069416"><g id="textblocktransform"><svg viewBox="0 0 475.62026826069416 64.8009" height="64.8009" width="475.62026826069416" id="textblock"><g><svg viewBox="0 0 475.62026826069416 64.8009" height="64.8009" width="475.62026826069416"><g><svg><g></g><g></g></svg></g><g><svg><g></g><g><svg></svg></g></svg></g><g id="text-0"><svg viewBox="0 0 475.62026826069416 64.8009" height="64.8009" width="475.62026826069416"><g><svg xmlns="http://www.w3.org/2000/svg" xmlns:xlink="http://www.w3.org/1999/xlink" version="1.0" x="0" y="0" viewBox="4.667734146118164 4.6859588623046875 90.3050308227539 90.30465698242188" enable-background="new 0 0 100 100" xml:space="preserve" height="64.8009" width="64.8011682606942" class="icon-s-0" data-fill-palette-color="accent" id="s-0"><path d="M17.504 35.743c-1.334 8.611 0.522 17.134 5.093 23.382 3.514 4.801 8.413 7.905 13.796 8.739 5.677 0.88 11.253-0.429 15.703-3.685 1.248-0.912 2.36-1.946 3.326-3.076-2.222 0.978-4.814 1.267-7.626 0.831-11.717-1.816-19.673-13.464-17.735-25.964 0.934-6.03 4.384-11.497 9.713-15.397 6.768-4.952 15.953-6.97 25.201-5.537 7.474 1.158 17.67 5.964 25.56 15.213 0 0-22.835-39.421-56.115-20.356C23.689 16.04 18.653 28.323 17.504 35.743z" fill="#000000" data-fill-palette-color="accent"></path><path d="M82.544 65.256c1.659-8.555 0.125-17.141-4.207-23.557-3.331-4.931-8.109-8.217-13.457-9.253-5.639-1.094-11.261 0.004-15.83 3.091-1.282 0.863-2.431 1.854-3.44 2.947 2.257-0.894 4.859-1.084 7.652-0.543 11.64 2.257 19.151 14.196 16.744 26.616-1.161 5.989-4.815 11.324-10.288 15.019-6.949 4.692-16.205 6.364-25.393 4.582C26.902 82.719 16.894 77.532 9.358 67.992c0 0 21.331 40.255 55.307 22.457C75.621 84.712 81.115 72.628 82.544 65.256z" fill="#000000" data-fill-palette-color="accent"></path><path d="M35.726 82.88c8.611 1.334 17.133-0.522 23.381-5.094 4.801-3.514 7.905-8.413 8.74-13.796 0.879-5.676-0.429-11.253-3.686-15.702-0.912-1.248-1.946-2.36-3.076-3.327 0.979 2.222 1.267 4.815 0.831 7.626-1.816 11.717-13.463 19.673-25.965 17.736-6.029-0.934-11.497-4.385-15.395-9.713-4.952-6.768-6.971-15.954-5.538-25.202 1.158-7.474 5.964-17.67 15.213-25.559 0 0-39.421 22.835-20.356 56.115C16.022 76.695 28.305 81.73 35.726 82.88z" fill="#000000" data-fill-palette-color="accent"></path><path d="M90.432 35.718c-5.738-10.955-17.822-16.45-25.194-17.879-8.554-1.659-17.141-0.125-23.557 4.208-4.931 3.331-8.217 8.108-9.254 13.456-1.094 5.64 0.004 11.261 3.092 15.83 0.863 1.282 1.854 2.431 2.946 3.441-0.894-2.257-1.084-4.859-0.542-7.652 2.257-11.64 14.196-19.151 26.615-16.744 5.99 1.161 11.324 4.816 15.019 10.289 4.693 6.949 6.363 16.204 4.583 25.392-1.44 7.423-6.626 17.431-16.167 24.966C67.973 91.025 108.228 69.694 90.432 35.718z" fill="#000000" data-fill-palette-color="accent"></path></svg></g><g transform="matrix(1,0,0,1,80.1002682606942,14.038214419494263)"><svg width="395.52" viewBox="3.0999999046325684 -39.54999923706055 431.3094177246094 40.04999923706055" height="36.72447116101147" data-palette-color="#5334d3"><path d="M22.55 0.5L22.55 0.5Q18.5 0.5 14.98-1.05 11.45-2.6 8.78-5.38 6.1-8.15 4.6-11.78 3.1-15.4 3.1-19.55L3.1-19.55Q3.1-23.65 4.58-27.28 6.05-30.9 8.72-33.65 11.4-36.4 14.93-37.98 18.45-39.55 22.55-39.55L22.55-39.55Q26.15-39.55 29.1-38.5 32.05-37.45 34.8-35.15L34.8-35.15Q35.25-34.8 35.33-34.33 35.4-33.85 35.2-33.43 35-33 34.6-32.8L34.6-32.8Q34.5-32.4 34.1-32.2 33.7-32 33.18-32.05 32.65-32.1 32.15-32.5L32.15-32.5Q30.2-34.2 27.9-35.02 25.6-35.85 22.55-35.85L22.55-35.85Q19.3-35.85 16.48-34.55 13.65-33.25 11.5-31 9.35-28.75 8.13-25.8 6.9-22.85 6.9-19.55L6.9-19.55Q6.9-16.15 8.13-13.2 9.35-10.25 11.5-8 13.65-5.75 16.48-4.48 19.3-3.2 22.55-3.2L22.55-3.2Q25.3-3.2 27.75-4.1 30.2-5 32.4-6.7L32.4-6.7Q33-7.2 33.68-7.1 34.35-7 34.85-6.5 35.35-6 35.35-5.2L35.35-5.2Q35.35-4.8 35.23-4.48 35.1-4.15 34.8-3.8L34.8-3.8Q32.25-1.45 29.1-0.48 25.95 0.5 22.55 0.5ZM45.5 0L45.5 0Q44.65 0 44.1-0.55 43.55-1.1 43.55-1.95L43.55-1.95 43.55-37.1Q43.55-37.95 44.1-38.5 44.65-39.05 45.5-39.05L45.5-39.05Q46.35-39.05 46.9-38.5 47.45-37.95 47.45-37.1L47.45-37.1 47.45-21.5 71.85-21.5 71.85-37.1Q71.85-37.95 72.4-38.5 72.95-39.05 73.8-39.05L73.8-39.05Q74.65-39.05 75.2-38.5 75.75-37.95 75.75-37.1L75.75-37.1 75.75-1.95Q75.75-1.1 75.2-0.55 74.65 0 73.8 0L73.8 0Q72.95 0 72.4-0.55 71.85-1.1 71.85-1.95L71.85-1.95 71.85-18 47.45-18 47.45-1.95Q47.45-1.1 46.9-0.55 46.35 0 45.5 0ZM83.59 0L83.59 0Q82.45 0 81.95-0.95 81.45-1.9 81.84-2.8L81.84-2.8 96.55-37.7Q97.09-39.05 98.45-39.05L98.45-39.05Q99.75-39.05 100.3-37.7L100.3-37.7 115.05-2.75Q115.5-1.8 114.92-0.9 114.34 0 113.3 0L113.3 0Q112.7 0 112.22-0.3 111.75-0.6 111.45-1.2L111.45-1.2 97.7-34.55 99.25-34.55 85.4-1.2Q85.15-0.6 84.67-0.3 84.2 0 83.59 0ZM110.2-9.3L86.9-9.3 88.4-12.65 108.7-12.65 110.2-9.3ZM122.84 0L122.84 0Q121.99 0 121.44-0.55 120.89-1.1 120.89-1.95L120.89-1.95 120.89-37.1Q120.89-37.95 121.44-38.5 121.99-39.05 122.84-39.05L122.84-39.05Q123.74-39.05 124.34-38.35L124.34-38.35 148.24-6.95 148.24-37.1Q148.24-37.95 148.79-38.5 149.34-39.05 150.19-39.05L150.19-39.05Q150.99-39.05 151.57-38.5 152.14-37.95 152.14-37.1L152.14-37.1 152.14-1.95Q152.14-1.1 151.57-0.55 150.99 0 150.19 0L150.19 0Q149.79 0 149.39-0.15 148.99-0.3 148.74-0.65L148.74-0.65 124.79-32.05 124.79-1.95Q124.79-1.1 124.22-0.55 123.64 0 122.84 0ZM173.09 0L164.09 0Q163.24 0 162.69-0.55 162.14-1.1 162.14-1.95L162.14-1.95 162.14-37.1Q162.14-37.95 162.69-38.5 163.24-39.05 164.09-39.05L164.09-39.05 173.09-39.05Q177.39-39.05 180.97-37.63 184.54-36.2 187.14-33.58 189.74-30.95 191.17-27.4 192.59-23.85 192.59-19.55L192.59-19.55Q192.59-15.25 191.17-11.68 189.74-8.1 187.14-5.48 184.54-2.85 180.97-1.43 177.39 0 173.09 0L173.09 0ZM166.04-35.55L166.04-3.5 173.09-3.5Q177.69-3.5 181.22-5.58 184.74-7.65 186.74-11.28 188.74-14.9 188.74-19.55L188.74-19.55Q188.74-24.2 186.74-27.83 184.74-31.45 181.22-33.5 177.69-35.55 173.09-35.55L173.09-35.55 166.04-35.55ZM217.69 0.5L217.69 0.5Q213.34 0.5 209.69-1 206.04-2.5 203.36-5.2 200.69-7.9 199.21-11.55 197.74-15.2 197.74-19.55L197.74-19.55Q197.74-23.85 199.21-27.5 200.69-31.15 203.36-33.85 206.04-36.55 209.69-38.05 213.34-39.55 217.69-39.55L217.69-39.55Q221.99-39.55 225.64-38.05 229.29-36.55 231.99-33.85 234.69-31.15 236.16-27.5 237.64-23.85 237.64-19.55L237.64-19.55Q237.64-15.2 236.16-11.55 234.69-7.9 231.99-5.2 229.29-2.5 225.64-1 221.99 0.5 217.69 0.5ZM217.69-3.2L217.69-3.2Q221.14-3.2 224.09-4.42 227.04-5.65 229.21-7.88 231.39-10.1 232.59-13.08 233.79-16.05 233.79-19.55L233.79-19.55Q233.79-23 232.59-25.98 231.39-28.95 229.21-31.18 227.04-33.4 224.09-34.63 221.14-35.85 217.69-35.85L217.69-35.85Q214.19-35.85 211.24-34.63 208.29-33.4 206.11-31.18 203.94-28.95 202.74-25.98 201.54-23 201.54-19.55L201.54-19.55Q201.54-16.05 202.74-13.08 203.94-10.1 206.11-7.88 208.29-5.65 211.24-4.42 214.19-3.2 217.69-3.2ZM247.64 0L247.64 0Q246.79 0 246.24-0.55 245.69-1.1 245.69-1.95L245.69-1.95 245.69-37.1Q245.69-37.95 246.24-38.5 246.79-39.05 247.64-39.05L247.64-39.05 256.99-39.05Q260.64-39.05 263.49-37.52 266.34-36 267.96-33.27 269.59-30.55 269.59-27L269.59-27Q269.59-23.6 267.96-20.95 266.34-18.3 263.49-16.8 260.64-15.3 256.99-15.3L256.99-15.3 249.59-15.3 249.59-1.95Q249.59-1.1 249.04-0.55 248.49 0 247.64 0ZM268.54 0L268.54 0Q267.89 0 267.51-0.25 267.14-0.5 266.84-1L266.84-1 257.24-16.3 261.14-17.3 270.09-3Q270.84-1.8 270.36-0.9 269.89 0 268.54 0ZM249.59-35.3L249.59-19.05 256.99-19.05Q259.54-19.05 261.51-20.08 263.49-21.1 264.64-22.9 265.79-24.7 265.79-27L265.79-27Q265.79-29.45 264.64-31.33 263.49-33.2 261.51-34.25 259.54-35.3 256.99-35.3L256.99-35.3 249.59-35.3ZM274.43 0L274.43 0Q273.28 0 272.78-0.95 272.28-1.9 272.68-2.8L272.68-2.8 287.38-37.7Q287.93-39.05 289.28-39.05L289.28-39.05Q290.58-39.05 291.13-37.7L291.13-37.7 305.88-2.75Q306.33-1.8 305.76-0.9 305.18 0 304.13 0L304.13 0Q303.53 0 303.06-0.3 302.58-0.6 302.28-1.2L302.28-1.2 288.53-34.55 290.08-34.55 276.23-1.2Q275.98-0.6 275.51-0.3 275.03 0 274.43 0ZM301.03-9.3L277.73-9.3 279.23-12.65 299.53-12.65 301.03-9.3ZM309.58 0L309.58 0Q308.43 0 307.93-0.95 307.43-1.9 307.83-2.8L307.83-2.8 322.53-37.7Q323.08-39.05 324.43-39.05L324.43-39.05Q325.73-39.05 326.28-37.7L326.28-37.7 341.03-2.75Q341.48-1.8 340.91-0.9 340.33 0 339.28 0L339.28 0Q338.68 0 338.21-0.3 337.73-0.6 337.43-1.2L337.43-1.2 323.68-34.55 325.23-34.55 311.38-1.2Q311.13-0.6 310.66-0.3 310.18 0 309.58 0ZM336.18-9.3L312.88-9.3 314.38-12.65 334.68-12.65 336.18-9.3ZM355.88 0.5L355.88 0.5Q352.53 0.5 349.88-1.05 347.23-2.6 345.68-5.25 344.13-7.9 344.13-11.2L344.13-11.2Q344.13-12.05 344.68-12.6 345.23-13.15 346.08-13.15L346.08-13.15Q346.93-13.15 347.48-12.6 348.03-12.05 348.03-11.2L348.03-11.2Q348.03-8.95 349.08-7.13 350.13-5.3 351.9-4.25 353.68-3.2 355.88-3.2L355.88-3.2Q358.08-3.2 359.85-4.28 361.63-5.35 362.65-7.15 363.68-8.95 363.68-11.2L363.68-11.2 363.68-37.1Q363.68-37.95 364.23-38.5 364.78-39.05 365.63-39.05L365.63-39.05Q366.48-39.05 367.03-38.5 367.58-37.95 367.58-37.1L367.58-37.1 367.58-11.2Q367.58-7.9 366.03-5.25 364.48-2.6 361.83-1.05 359.18 0.5 355.88 0.5ZM373.93 0L373.93 0Q372.77 0 372.27-0.95 371.77-1.9 372.18-2.8L372.18-2.8 386.88-37.7Q387.43-39.05 388.77-39.05L388.77-39.05Q390.07-39.05 390.63-37.7L390.63-37.7 405.38-2.75Q405.82-1.8 405.25-0.9 404.68 0 403.63 0L403.63 0Q403.02 0 402.55-0.3 402.07-0.6 401.77-1.2L401.77-1.2 388.02-34.55 389.57-34.55 375.72-1.2Q375.47-0.6 375-0.3 374.52 0 373.93 0ZM400.52-9.3L377.22-9.3 378.72-12.65 399.02-12.65 400.52-9.3ZM418.42 0L418.42 0Q417.62 0 417.05-0.58 416.47-1.15 416.47-1.95L416.47-1.95 416.47-14.45 402.87-36Q402.37-36.75 402.5-37.45 402.62-38.15 403.12-38.6 403.62-39.05 404.37-39.05L404.37-39.05Q404.97-39.05 405.35-38.8 405.72-38.55 406.02-38.1L406.02-38.1 419.52-16.35 417.42-16.35 430.87-38Q431.22-38.55 431.65-38.8 432.07-39.05 432.67-39.05L432.67-39.05Q433.37-39.05 433.85-38.58 434.32-38.1 434.4-37.4 434.47-36.7 434.02-36L434.02-36 420.37-14.45 420.37-1.95Q420.37-1.15 419.8-0.58 419.22 0 418.42 0Z" opacity="1" transform="matrix(1,0,0,1,0,0)" fill="#000000" class="undefined-text-0" data-fill-palette-color="primary"></path></svg></g></svg></g></svg></g></svg></g></svg></g></svg></g><defs></defs></svg><rect width="395.52" height="53.88763616346099" fill="none" stroke="none" visibility="hidden"></rect></g></svg></g></svg>